<?xml version="1.0" encoding="UTF-8"?>
<svg version="1.1" xmlns="http://www.w3.org/2000/svg" width="544" height="545">
<path d="M0 0 C0.74999268 0.61681641 0.74999268 0.61681641 1.51513672 1.24609375 C15.25297302 12.55430377 28.14244773 24.86824652 39 39 C39.9897733 40.23917035 40.980749 41.47738088 41.97265625 42.71484375 C50.59135481 53.58427695 58.00894048 65.02680611 65 77 C65.41733398 77.7105957 65.83466797 78.42119141 66.26464844 79.15332031 C80.33086856 103.43022495 89.19085563 130.49729803 94.8125 157.875 C95.00763184 158.82391113 95.20276367 159.77282227 95.40380859 160.75048828 C98.60407955 177.33371051 99.37706757 193.76889401 99.3125 210.625 C99.31034485 211.63946198 99.3081897 212.65392395 99.30596924 213.6991272 C99.25495303 228.67179369 98.87323063 243.26210811 96 258 C95.80132324 259.05525879 95.60264648 260.11051758 95.39794922 261.19775391 C86.76794309 306.00267713 67.83114773 347.58985895 39 383 C38.56284668 383.54011719 38.12569336 384.08023437 37.67529297 384.63671875 C26.20206752 398.70463934 13.42822007 411.95521698 -1 423 C-2.23804088 423.98825473 -3.47493287 424.97794972 -4.7109375 425.96875 C-15.58093281 434.58978076 -27.02521291 442.00801022 -39 449 C-39.7105957 449.41733398 -40.42119141 449.83466797 -41.15332031 450.26464844 C-65.43022495 464.33086856 -92.49729803 473.19085563 -119.875 478.8125 C-120.82391113 479.00763184 -121.77282227 479.20276367 -122.75048828 479.40380859 C-139.33371051 482.60407955 -155.76889401 483.37706757 -172.625 483.3125 C-173.63946198 483.31034485 -174.65392395 483.3081897 -175.6991272 483.30596924 C-190.67179369 483.25495303 -205.26210811 482.87323063 -220 480 C-221.05525879 479.80132324 -222.11051758 479.60264648 -223.19775391 479.39794922 C-285.48274015 467.40105748 -345.95159282 433.82383673 -385 383 C-385.9897733 381.76082965 -386.980749 380.52261912 -387.97265625 379.28515625 C-396.59135481 368.41572305 -404.00894048 356.97319389 -411 345 C-411.41733398 344.2894043 -411.83466797 343.57880859 -412.26464844 342.84667969 C-426.33086856 318.56977505 -435.19085563 291.50270197 -440.8125 264.125 C-441.00763184 263.17608887 -441.20276367 262.22717773 -441.40380859 261.24951172 C-444.60407955 244.66628949 -445.37706757 228.23110599 -445.3125 211.375 C-445.31034485 210.36053802 -445.3081897 209.34607605 -445.30596924 208.3008728 C-445.25495303 193.32820631 -444.87323063 178.73789189 -442 164 C-441.80132324 162.94474121 -441.60264648 161.88948242 -441.39794922 160.80224609 C-432.76621242 115.98833767 -413.82353442 74.42341864 -385 39 C-384.56816406 38.4652002 -384.13632812 37.93040039 -383.69140625 37.37939453 C-371.96917535 22.96869546 -358.8305179 9.22645349 -344 -2 C-342.83791249 -2.91326247 -341.67650179 -3.82738654 -340.515625 -4.7421875 C-329.87658456 -13.02578119 -318.62354407 -20.18179637 -307 -27 C-306.2879541 -27.41878418 -305.5759082 -27.83756836 -304.84228516 -28.26904297 C-221.3459756 -76.63889924 -113.86044524 -71.6870631 0 0 Z " fill="#FEFEFE" transform="translate(445,62)"/>
<path d="M0 0 C0.74999268 0.61681641 0.74999268 0.61681641 1.51513672 1.24609375 C15.25297302 12.55430377 28.14244773 24.86824652 39 39 C39.9897733 40.23917035 40.980749 41.47738088 41.97265625 42.71484375 C50.59135481 53.58427695 58.00894048 65.02680611 65 77 C65.41733398 77.7105957 65.83466797 78.42119141 66.26464844 79.15332031 C80.33086856 103.43022495 89.19085563 130.49729803 94.8125 157.875 C95.00763184 158.82391113 95.20276367 159.77282227 95.40380859 160.75048828 C98.60407955 177.33371051 99.37706757 193.76889401 99.3125 210.625 C99.31034485 211.63946198 99.3081897 212.65392395 99.30596924 213.6991272 C99.25495303 228.67179369 98.87323063 243.26210811 96 258 C95.70198486 259.58288818 95.70198486 259.58288818 95.39794922 261.19775391 C83.28572478 324.08151991 83.28572478 324.08151991 65 342 C64.17799567 343.26398908 63.39982746 344.55722693 62.66015625 345.87109375 C62.23669922 346.61037109 61.81324219 347.34964844 61.37695312 348.11132812 C60.50326924 349.65747599 59.63086505 351.2043477 58.75976562 352.75195312 C56.51578419 356.66444883 54.44734289 360.00057173 51 363 C50.50371094 361.80503906 50.00742187 360.61007812 49.49609375 359.37890625 C44.21244486 346.79333927 44.21244486 346.79333927 36 336 C35.35804688 335.319375 34.71609375 334.63875 34.0546875 333.9375 C13.753065 314.16027365 -20.36263464 312.97936155 -47 311 C-48.13779687 310.91491401 -49.27559374 310.82982801 -50.4478693 310.74216366 C-60.42654449 310.05374197 -70.33611349 309.87349984 -80.33569336 309.91821289 C-82.00502938 309.92178055 -83.67436649 309.92486333 -85.34370422 309.92750549 C-88.90440632 309.93399413 -92.46508209 309.94351159 -96.02577019 309.95540047 C-101.67314454 309.97389947 -107.32051303 309.98334617 -112.96791077 309.99131775 C-129.01533729 310.01531526 -145.06272564 310.05127123 -161.11010742 310.09594727 C-169.99925097 310.12061515 -178.88837982 310.13790306 -187.77755266 310.14750665 C-193.37435329 310.15398896 -198.9710306 310.16941693 -204.56778896 310.19182408 C-208.06813446 310.20367921 -211.56845139 310.2069286 -215.06881523 310.20792198 C-216.6726415 310.2100419 -218.27646807 310.21553578 -219.8802681 310.2249527 C-250.80182822 310.39926127 -281.27731031 305.01179321 -304.22265625 282.79296875 C-316.09973388 270.84907211 -323.35365433 256.10892856 -329.1875 240.4375 C-329.64298218 239.2146228 -329.64298218 239.2146228 -330.10766602 237.96704102 C-330.8054943 236.00054872 -331.41191085 234.0020508 -332 232 C-331.67 231.34 -331.34 230.68 -331 230 C-330.3709375 231.16015625 -329.741875 232.3203125 -329.09375 233.515625 C-316.43962429 256.692053 -303.40569727 278.39018343 -277 287 C-266.20335585 290.019508 -255.59234534 291.06327361 -244.4375 291.5625 C-243.52419922 291.60568359 -242.61089844 291.64886719 -241.66992188 291.69335938 C-239.44672009 291.79811757 -237.22343293 291.90029017 -235 292 C-235.45375 290.865625 -235.9075 289.73125 -236.375 288.5625 C-241.68700685 272.15334364 -240.27987179 254.004279 -240.23213124 236.97312772 C-240.22340117 233.0585983 -240.22642358 229.1440744 -240.22793579 225.22953796 C-240.22897867 218.46630698 -240.222765 211.70311492 -240.21146011 204.93989372 C-240.19512639 195.16171477 -240.1899891 185.38355443 -240.18748413 175.60536332 C-240.1831193 159.73649134 -240.16984329 143.86764006 -240.15087891 127.9987793 C-240.13248859 112.59415795 -240.11834756 97.18954224 -240.10986328 81.78491211 C-240.10933783 80.83353982 -240.10881239 79.88216754 -240.10827102 78.90196579 C-240.10566073 74.12866381 -240.10313336 69.35536179 -240.10064721 64.58205974 C-240.07995251 25.05469201 -240.04476023 -14.47265262 -240 -54 C-236.1766458 -54.81142206 -232.35210851 -55.61713035 -228.52734375 -56.421875 C-227.45335327 -56.64987793 -226.37936279 -56.87788086 -225.27282715 -57.11279297 C-146.84071348 -73.57440812 -61.2239641 -51.35531261 0 0 Z " fill="#EF750F" transform="translate(445,62)"/>
<path d="M0 0 C-0.05923071 0.78340309 -0.11846141 1.56680618 -0.17948699 2.37394875 C-1.62140382 21.85043804 -2.29118281 41.1903482 -2.25878906 60.7277832 C-2.26041289 63.54727999 -2.26500593 66.36677041 -2.26940918 69.18626404 C-2.2781744 75.96127824 -2.2764403 82.73624746 -2.2705839 89.51126323 C-2.26601749 95.02803747 -2.26547564 100.54479934 -2.26763153 106.06157494 C-2.26809123 107.2512966 -2.26809123 107.2512966 -2.26856022 108.46505305 C-2.26919983 110.07758648 -2.26984826 111.69011991 -2.2705054 113.30265334 C-2.27617045 128.32380974 -2.26971053 143.34494148 -2.25890467 158.36609384 C-2.24996394 171.19077081 -2.25153298 184.01541156 -2.26074219 196.84008789 C-2.271498 211.8250388 -2.27563055 226.8099683 -2.26951766 241.79492253 C-2.26888072 243.39911631 -2.26825198 245.0033101 -2.26763153 246.60750389 C-2.26732298 247.39629273 -2.26701443 248.18508158 -2.26669653 248.99777311 C-2.26498608 254.49576208 -2.26784837 259.99373719 -2.27259064 265.49172401 C-2.27825866 272.20887086 -2.27656054 278.9259711 -2.26602915 285.64311276 C-2.26085198 289.05511688 -2.25969357 292.46698145 -2.26532745 295.87899399 C-2.28502615 309.03511609 -2.08527252 322.11196454 -1.09710693 335.23551941 C-1.01806444 336.28589805 -0.93902195 337.33627669 -0.85758424 338.41848499 C1.04338298 361.08535485 8.16290592 382.9225126 26 398 C44.91995457 412.13328164 68.45726914 416.13564046 91.54144287 416.15821838 C92.6379209 416.16315636 93.73439892 416.16809434 94.86410356 416.17318195 C98.50282546 416.18842208 102.14152991 416.19688063 105.78027344 416.20532227 C108.40270132 416.21491142 111.02512769 416.22492209 113.64755249 416.23532104 C119.27531976 416.25697659 124.90308943 416.27516041 130.53087616 416.29092598 C138.66751763 416.31372492 146.80413396 416.3418533 154.94075397 416.37124526 C168.14473629 416.41879902 181.34872895 416.46209592 194.55273438 416.50268555 C207.372404 416.54210289 220.19206448 416.58354386 233.01171875 416.62768555 C233.80310689 416.63040982 234.59449503 416.63313409 235.40986463 416.63594092 C239.38038009 416.64962142 243.35089541 416.66334149 247.32141066 416.67708123 C280.21425483 416.79085388 313.10711809 416.89770529 346 417 C344.58705189 419.96845033 343.43342069 421.7520761 340.82421875 423.77734375 C340.17195313 424.28426758 339.5196875 424.79119141 338.84765625 425.31347656 C338.13480469 425.8494043 337.42195313 426.38533203 336.6875 426.9375 C335.93984375 427.50307617 335.1921875 428.06865234 334.421875 428.65136719 C325.34002206 435.3956496 315.76218523 441.29993211 306 447 C305.2894043 447.41733398 304.57880859 447.83466797 303.84667969 448.26464844 C279.56977505 462.33086856 252.50270197 471.19085563 225.125 476.8125 C224.17608887 477.00763184 223.22717773 477.20276367 222.24951172 477.40380859 C205.66628949 480.60407955 189.23110599 481.37706757 172.375 481.3125 C171.36053802 481.31034485 170.34607605 481.3081897 169.3008728 481.30596924 C154.32820631 481.25495303 139.73789189 480.87323063 125 478 C123.94474121 477.80132324 122.88948242 477.60264648 121.80224609 477.39794922 C59.51725985 465.40105748 -0.95159282 431.82383673 -40 381 C-40.9897733 379.76082965 -41.980749 378.52261912 -42.97265625 377.28515625 C-51.59135481 366.41572305 -59.00894048 354.97319389 -66 343 C-66.41733398 342.2894043 -66.83466797 341.57880859 -67.26464844 340.84667969 C-86.16527874 308.22606125 -99.05501947 267.89432391 -99.203125 230.03125 C-99.20882507 228.87870728 -99.21452515 227.72616455 -99.22039795 226.53869629 C-99.22982009 224.09790962 -99.23637082 221.65711039 -99.24023438 219.21630859 C-99.24982357 215.56714038 -99.28082522 211.91856474 -99.3125 208.26953125 C-99.57415678 150.34280343 -81.03166614 93.29718609 -46 47 C-44.9011145 45.51161621 -44.9011145 45.51161621 -43.7800293 43.99316406 C-36.66386937 34.52077879 -28.59690547 26.16537154 -20.1809082 17.84472656 C-17.90051525 15.58840567 -15.63424313 13.31853598 -13.36914062 11.046875 C-11.92267236 9.60596996 -10.47543631 8.16583515 -9.02734375 6.7265625 C-8.3503392 6.04864655 -7.67333466 5.37073059 -6.97581482 4.67227173 C-6.0382711 3.74902603 -6.0382711 3.74902603 -5.08178711 2.80712891 C-4.25885414 1.99110703 -4.25885414 1.99110703 -3.41929626 1.15859985 C-2 0 -2 0 0 0 Z " fill="#1F96C0" transform="translate(100,64)"/>
<path d="M0 0 C0.74999268 0.61681641 0.74999268 0.61681641 1.51513672 1.24609375 C16.49632033 13.57775697 31.94278905 27.23798175 42 44 C-8.49 44 -58.98 44 -111 44 C-112.32 49.61 -113.64 55.22 -115 61 C-115.92928464 64.36926499 -116.87303867 67.71652653 -117.875 71.0625 C-120.15173321 78.83172431 -122.1974431 86.63711282 -124.125 94.5 C-126.15175432 102.76560422 -128.31679567 110.91881989 -131 119 C-134.3 118.34 -137.6 117.68 -141 117 C-140.15995569 111.12969038 -138.69326243 105.43175645 -137.25 99.6875 C-136.8468457 98.07681641 -136.8468457 98.07681641 -136.43554688 96.43359375 C-134.74530353 89.75253731 -132.91494252 83.13799602 -130.90429688 76.54736328 C-128.65009598 69.05087687 -126.81715709 61.44822292 -124.96679688 53.84375 C-124.72509766 52.85503906 -124.48339844 51.86632812 -124.234375 50.84765625 C-124.02006836 49.96086182 -123.80576172 49.07406738 -123.58496094 48.16040039 C-123 46 -123 46 -122 44 C-135.86 44 -149.72 44 -164 44 C-164 67.1 -164 90.2 -164 114 C-167.63 114 -171.26 114 -175 114 C-175 90.9 -175 67.8 -175 44 C-188.86 44 -202.72 44 -217 44 C-216.113125 47.0525 -215.22625 50.105 -214.3125 53.25 C-212.23356312 60.46842107 -210.280659 67.70237326 -208.5 75 C-206.33235616 83.87512018 -203.87802817 92.65241347 -201.33203125 101.42578125 C-201.10596191 102.20646973 -200.87989258 102.9871582 -200.64697266 103.79150391 C-200.23358327 105.20264367 -199.81216231 106.61147163 -199.38037109 108.01708984 C-198.40967632 111.22575168 -198 113.59181454 -198 117 C-202.95 117.99 -202.95 117.99 -208 119 C-210.71033951 110.83709513 -212.88948819 102.59913347 -214.9375 94.25 C-216.83286289 86.52572676 -218.85225814 78.87798568 -221.16455078 71.26879883 C-223.77094942 62.5995062 -225.86281629 53.79428363 -228 45 C-231.96 44.67 -235.92 44.34 -240 44 C-240 11.66 -240 -20.68 -240 -54 C-155.01623799 -71.70495042 -67.8358728 -56.90145199 0 0 Z " fill="#EB910A" transform="translate(445,62)"/>
<path d="M0 0 C20.06863998 16.72386665 33.40576557 37.50324993 38.875 63.1875 C39.09800781 64.05632812 39.32101562 64.92515625 39.55078125 65.8203125 C41.82025564 75.67014013 40.875 84.75629127 40.875 95.1875 C92.355 94.8575 143.835 94.5275 196.875 94.1875 C197.535 88.5775 198.195 82.9675 198.875 77.1875 C199.205 77.1875 199.535 77.1875 199.875 77.1875 C200.11762128 84.4980884 199.44409809 91.36551284 198.1875 98.5625 C198.00743408 99.60833252 197.82736816 100.65416504 197.6418457 101.73168945 C192.77070771 129.1544693 184.64022737 158.35327511 169.875 182.1875 C169.545 181.5275 169.215 180.8675 168.875 180.1875 C170.09854674 177.42683425 171.38963394 174.75519176 172.75 172.0625 C184.63894699 147.68183242 191.30056568 122.66606301 196.875 96.1875 C145.065 96.1875 93.255 96.1875 39.875 96.1875 C39.545 100.1475 39.215 104.1075 38.875 108.1875 C37.91851196 111.81583068 36.92166655 115.22876024 35.6875 118.75 C35.40841797 119.60529297 35.12933594 120.46058594 34.84179688 121.34179688 C33.201981 126.15988723 31.21580287 130.56224192 28.74487305 135.01538086 C28.20678513 135.98898056 27.6686972 136.96258026 27.11430359 137.96568298 C26.7053334 138.6988826 26.29636322 139.43208221 25.875 140.1875 C10.17543514 140.23435735 -5.52411063 140.26955584 -21.22372818 140.29112434 C-28.51441037 140.30140809 -35.80504894 140.31541248 -43.09570312 140.33837891 C-49.45510825 140.35840213 -55.81448176 140.37123749 -62.17391753 140.37567699 C-65.53678304 140.37826936 -68.89948699 140.38537344 -72.26233673 140.39896011 C-76.0294369 140.41356881 -79.79635243 140.41547401 -83.56347656 140.41455078 C-85.20994675 140.42533661 -85.20994675 140.42533661 -86.88967896 140.43634033 C-97.33217101 140.40881472 -108.68677948 140.06949133 -117.125 133.1875 C-129.23629808 118.52333026 -126.39999745 96.08587744 -126.3203125 78.34375 C-126.31657464 75.87797155 -126.31373133 73.41219161 -126.31173706 70.94641113 C-126.30416146 64.50872578 -126.28456623 58.07113306 -126.2623291 51.63348389 C-126.24173868 45.04342908 -126.23270733 38.45335907 -126.22265625 31.86328125 C-126.20131372 18.97131503 -126.16764612 6.07941248 -126.125 -6.8125 C-123.7296079 -8.10668408 -121.33242179 -9.39733416 -118.93408203 -10.68603516 C-118.26008865 -11.05064346 -117.58609528 -11.41525177 -116.89167786 -11.79090881 C-112.05142413 -14.38687223 -107.25171285 -16.5507329 -102 -18.1875 C-101.31808594 -18.42082031 -100.63617188 -18.65414062 -99.93359375 -18.89453125 C-65.64239642 -30.03130543 -28.09211335 -21.55191821 0 0 Z " fill="#FEFDFC" transform="translate(343.125,218.8125)"/>
<path d="M0 0 C4.20490286 1.65192612 4.80982935 3.01228669 8 7 C-15.76 30.76 -39.52 54.52 -64 79 C-18.75409899 84.20859791 -18.75409899 84.20859791 2 70 C6.18199633 72.09099816 6.99659367 72.99318733 9 77 C9 77.66 9 78.32 9 79 C10.06044525 79.01030746 11.1208905 79.02061493 12.21347046 79.03123474 C22.19045216 79.12884569 32.16736978 79.23156793 42.14424706 79.33933926 C47.27387692 79.39458458 52.40351247 79.44800716 57.53320312 79.49731445 C62.48044538 79.54493426 67.42761688 79.5972762 72.37477493 79.65294075 C74.26546093 79.67337512 76.15616634 79.69208639 78.04688644 79.70907402 C80.68806753 79.73309409 83.32911421 79.76315187 85.97021484 79.79467773 C86.75783707 79.8004332 87.54545929 79.80618866 88.35694885 79.81211853 C93.77189568 79.88594784 93.77189568 79.88594784 96 81 C96.5625 82.75561523 96.5625 82.75561523 97 85.05859375 C97.165 85.92162109 97.33 86.78464844 97.5 87.67382812 C97.665 88.58583984 97.83 89.49785156 98 90.4375 C98.165 91.28376953 98.33 92.13003906 98.5 93.00195312 C101.68469689 110.08237826 102.2690406 126.79392625 102.125 144.125 C102.11493803 146.25911033 102.10581794 148.39322531 102.09765625 150.52734375 C102.07592543 155.6850138 102.04157764 160.84245334 102 166 C101.34 166 100.68 166 100 166 C100.01160156 166.556875 100.02320313 167.11375 100.03515625 167.6875 C100.0967465 172.89627542 99.82717826 177.85311307 99 183 C98 184 98 184 95.44064236 184.12304783 C94.29116651 184.12212604 93.14169065 184.12120424 91.9573822 184.12025452 C90.64339951 184.12162918 89.32941681 184.12300385 87.97561646 184.12442017 C86.50579812 184.12088054 85.03598 184.11724573 83.56616211 184.11352539 C82.02908836 184.11324353 80.49201447 184.11340123 78.9549408 184.1139679 C74.7691714 184.11425591 70.58343041 184.10835852 66.39766765 184.10139394 C62.02809844 184.09516109 57.65852865 184.09455666 53.28895569 184.09336853 C45.00872953 184.09025501 36.7285165 184.08204135 28.44829613 184.07201904 C19.02402841 184.06085854 9.59976008 184.05534761 0.1754874 184.05032361 C-19.21634919 184.03985875 -38.60817354 184.02225891 -58 184 C-58.03801381 183.09698387 -58.03801381 183.09698387 -58.07679558 182.17572498 C-58.19475963 179.4194822 -58.31779896 176.66348784 -58.44091797 173.9074707 C-58.50057991 172.48700817 -58.50057991 172.48700817 -58.56144714 171.03784943 C-58.86862394 164.2734341 -59.56234756 157.78818851 -61.125 151.1875 C-61.34236816 150.23447998 -61.55973633 149.28145996 -61.78369141 148.29956055 C-68.37339521 121.01543154 -85.30041741 98.62840918 -108.2890625 82.93359375 C-109.18367188 82.29550781 -110.07828125 81.65742188 -111 81 C-111 80.67 -111 80.34 -111 80 C-110.24795288 80.17688858 -109.49590576 80.35377716 -108.72106934 80.536026 C-97.9741043 82.63163995 -86.22994179 83.35800335 -76.51538086 77.50234222 C-62.87644782 67.69727776 -51.54483191 54.573297 -40.18133545 42.30993652 C-35.68620014 37.49442907 -31.0990543 32.76827597 -26.51953125 28.03320312 C-17.5889895 18.77277041 -8.75946738 9.42227304 0 0 Z " fill="#F16512" transform="translate(442,130)"/>
<path d="M0 0 C1.98 0.66 3.96 1.32 6 2 C6 2.66 6 3.32 6 4 C6.78375 4.226875 7.5675 4.45375 8.375 4.6875 C11.20772688 5.71314249 13.55417913 6.78552181 16.1875 8.1875 C38.30851044 19.33017836 64.2328666 25.11212188 89 25 C89.99 24.505 89.99 24.505 91 24 C92.85163037 24.48005232 94.70262689 24.96267435 96.55045485 25.45716101 C104.99596608 27.32875452 113.92998028 27.14979577 122.54144287 27.15821838 C123.6379209 27.16315636 124.73439892 27.16809434 125.86410356 27.17318195 C129.50282546 27.18842208 133.14152991 27.19688063 136.78027344 27.20532227 C139.40270132 27.21491142 142.02512769 27.22492209 144.64755249 27.23532104 C150.27531976 27.25697659 155.90308943 27.27516041 161.53087616 27.29092598 C169.66751763 27.31372492 177.80413396 27.3418533 185.94075397 27.37124526 C199.14473629 27.41879902 212.34872895 27.46209592 225.55273438 27.50268555 C238.372404 27.54210289 251.19206448 27.58354386 264.01171875 27.62768555 C264.80310689 27.63040982 265.59449503 27.63313409 266.40986463 27.63594092 C270.38038009 27.64962142 274.35089541 27.66334149 278.32141066 27.67708123 C311.21425483 27.79085388 344.10711809 27.89770529 377 28 C375.58705189 30.96845033 374.43342069 32.7520761 371.82421875 34.77734375 C371.17195313 35.28426758 370.5196875 35.79119141 369.84765625 36.31347656 C369.13480469 36.8494043 368.42195313 37.38533203 367.6875 37.9375 C366.93984375 38.50307617 366.1921875 39.06865234 365.421875 39.65136719 C356.34002206 46.3956496 346.76218523 52.29993211 337 58 C336.2894043 58.41733398 335.57880859 58.83466797 334.84667969 59.26464844 C310.56977505 73.33086856 283.50270197 82.19085563 256.125 87.8125 C255.17608887 88.00763184 254.22717773 88.20276367 253.24951172 88.40380859 C236.66628949 91.60407955 220.23110599 92.37706757 203.375 92.3125 C202.36053802 92.31034485 201.34607605 92.3081897 200.3008728 92.30596924 C185.32820631 92.25495303 170.73789189 91.87323063 156 89 C154.94474121 88.80132324 153.88948242 88.60264648 152.80224609 88.39794922 C96.61880811 77.57629438 47.63063256 50.35033553 7.0625 10.375 C6.35762451 9.68776855 5.65274902 9.00053711 4.92651367 8.29248047 C4.28174072 7.64682129 3.63696777 7.00116211 2.97265625 6.3359375 C2.39781494 5.76407715 1.82297363 5.1922168 1.23071289 4.60302734 C0 3 0 3 0 0 Z " fill="#0E8C0E" transform="translate(69,453)"/>
<path d="M0 0 C4.95 0 9.9 0 15 0 C14.67 0.66 14.34 1.32 14 2 C13.34 2 12.68 2 12 2 C12.08431853 16.19636079 12.17972469 30.39261114 12.28752708 44.58881378 C12.33727857 51.18207228 12.38360905 57.77531638 12.421875 64.36865234 C12.45899669 70.74243436 12.50542639 77.11608926 12.55806351 83.48976135 C12.57646565 85.91034189 12.59162471 88.33094953 12.60334396 90.75157166 C11.68936732 117.13784466 11.68936732 117.13784466 21 141 C29.72967966 148.86535494 43.52252012 148.29936596 54.56152344 148.22705078 C56.34905533 148.22748886 56.34905533 148.22748886 58.17269897 148.22793579 C62.0683346 148.22655475 65.96377324 148.21105161 69.859375 148.1953125 C72.57749321 148.19045838 75.29561124 148.18863457 78.01373291 148.18673706 C84.40949025 148.18055341 90.80517814 148.16418538 97.20090508 148.14403808 C104.49003123 148.12158133 111.77916092 148.11066122 119.06831312 148.10064721 C134.04558058 148.0798159 149.0227833 148.04470141 164 148 C165.13322596 145.59562499 166.26396625 143.19013307 167.39331055 140.78393555 C167.71287468 140.10657097 168.03243881 139.42920639 168.36168671 138.73131561 C170.50608464 134.15588669 172.34340969 129.65582599 173.8125 124.8125 C174.19019531 123.60207031 174.56789063 122.39164062 174.95703125 121.14453125 C176.29346373 115.83383887 177.09970717 110.40175695 178 105 C229.81 105 281.62 105 335 105 C330.66115158 144.04963576 314.50163859 182.94459307 292 215 C289.74603075 212.74603075 288.88213819 210.51017602 287.69189453 207.59179688 C284.68175392 200.21770448 281.55850894 193.82765779 276 188 C275.03513672 186.97519531 275.03513672 186.97519531 274.05078125 185.9296875 C253.72552836 166.16798136 219.64988578 164.98029191 193 163 C191.86220313 162.91491401 190.72440626 162.82982801 189.5521307 162.74216366 C179.57345551 162.05374197 169.66388651 161.87349984 159.66430664 161.91821289 C157.99497062 161.92178055 156.32563351 161.92486333 154.65629578 161.92750549 C151.09559368 161.93399413 147.53491791 161.94351159 143.97422981 161.95540047 C138.32685546 161.97389947 132.67948697 161.98334617 127.03208923 161.99131775 C110.98466271 162.01531526 94.93727436 162.05127123 78.88989258 162.09594727 C70.00074903 162.12061515 61.11162018 162.13790306 52.22244734 162.14750665 C46.62564671 162.15398896 41.0289694 162.16941693 35.43221104 162.19182408 C31.93186554 162.20367921 28.43154861 162.2069286 24.93118477 162.20792198 C23.3273585 162.2100419 21.72353193 162.21553578 20.1197319 162.2249527 C-10.80182822 162.39926127 -41.27731031 157.01179321 -64.22265625 134.79296875 C-76.09973388 122.84907211 -83.35365433 108.10892856 -89.1875 92.4375 C-89.49115479 91.62224854 -89.79480957 90.80699707 -90.10766602 89.96704102 C-90.8054943 88.00054872 -91.41191085 86.0020508 -92 84 C-91.505 83.01 -91.505 83.01 -91 82 C-90.3709375 83.16015625 -89.741875 84.3203125 -89.09375 85.515625 C-76.43962429 108.692053 -63.40569727 130.39018343 -37 139 C-26.20335585 142.019508 -15.59234534 143.06327361 -4.4375 143.5625 C-3.52419922 143.60568359 -2.61089844 143.64886719 -1.66992188 143.69335938 C0.55327991 143.79811757 2.77656707 143.90029017 5 144 C4.319375 142.2984375 4.319375 142.2984375 3.625 140.5625 C-1.54672132 124.67754723 -0.26487341 106.99235168 -0.1953125 90.52734375 C-0.19157464 87.90605274 -0.18873133 85.28476032 -0.18673706 82.66346741 C-0.18057516 76.51578669 -0.16423779 70.36817898 -0.14403808 64.22053009 C-0.12151208 57.20939691 -0.11064411 50.19825983 -0.10064721 43.18709934 C-0.07986541 28.79136134 -0.04438158 14.39568415 0 0 Z " fill="#F45517" transform="translate(205,210)"/>
<path d="M0 0 C4.95 0 9.9 0 15 0 C14.67 0.66 14.34 1.32 14 2 C13.34 2 12.68 2 12 2 C12 35.66 12 69.32 12 104 C8.04 104 4.08 104 0 104 C0 69.68 0 35.36 0 0 Z " fill="#F35413" transform="translate(205,210)"/>
<path d="M0 0 C6.94828302 0.46088372 13.23013715 1.70660276 19.875 3.75 C26.88335385 5.831541 33.89521115 7.77565998 41 9.5 C48.77300991 11.39615493 56.45432926 13.53107233 64.13574219 15.76733398 C70.14355317 17.50353112 76.17570527 19.0769931 82.25 20.5625 C88.74521791 22.16945171 95.23549661 23.78895377 101.6875 25.5625 C102.41291992 25.74820557 103.13833984 25.93391113 103.88574219 26.12524414 C105.88671875 26.69140625 105.88671875 26.69140625 109 28 C110.52946466 30.93539563 109.99973517 32.00091808 109.0625 35.25 C108.711875 36.1575 108.36125 37.065 108 38 C101.43916601 37.64213633 95.52403688 36.06659151 89.27758789 34.1496582 C82.90160523 32.21400675 76.47200693 30.58172937 70 29 C63.116833 27.31206058 56.28022114 25.56445039 49.5 23.5 C42.73913481 21.44346306 35.92365431 19.69045267 29.0625 18 C21.54624001 16.14254373 14.03674224 14.27092918 6.5625 12.25 C5.80525635 12.05148437 5.0480127 11.85296875 4.26782227 11.6484375 C2.49362142 11.16113201 0.74312727 10.58886552 -1 10 C-2.6629174 6.6741652 -0.94632069 3.45128723 0 0 Z " fill="#FEF9F8" transform="translate(400,333)"/>
<path d="M0 0 C2.32652939 2.32652939 2.55308321 3.5465074 3.296875 6.70703125 C3.53003418 7.67455322 3.76319336 8.6420752 4.00341797 9.63891602 C4.24979004 10.68619873 4.49616211 11.73348145 4.75 12.8125 C6.63897586 20.61305646 8.61216239 28.36192507 10.875 36.0625 C13.43905211 44.82756362 15.7432264 53.65186443 18 62.5 C20.76103843 73.32002428 23.64832823 84.09138815 26.7734375 94.8125 C26.9806543 95.5240625 27.18787109 96.235625 27.40136719 96.96875 C27.97653051 98.92036452 28.56991883 100.86657981 29.1640625 102.8125 C30 106 30 106 30 110 C25.05 110.99 25.05 110.99 20 112 C17.28966035 103.8370947 15.11052325 95.59912994 13.0625 87.25 C11.35306896 80.28382767 9.59089479 73.3618596 7.5 66.5 C4.80706277 57.64492464 2.6270623 48.67135036 0.41015625 39.6875 C-2.22953178 28.99455637 -5.13183941 18.38657184 -8.265625 7.828125 C-9 5 -9 5 -9 2 C-7.54536519 1.61090015 -6.08608793 1.23911971 -4.625 0.875 C-3.40683594 0.56175781 -3.40683594 0.56175781 -2.1640625 0.2421875 C-1.44992188 0.16226563 -0.73578125 0.08234375 0 0 Z " fill="#FEFBF7" transform="translate(217,69)"/>
<path d="M0 0 C1.61989062 3.54351073 2.10414268 6.12719419 2 10 C1.14994385 10.21615967 0.2998877 10.43231934 -0.57592773 10.6550293 C-20.29199534 15.62406031 -20.29199534 15.62406031 -39.83959961 21.20581055 C-46.86585471 23.32068058 -53.99438129 25.01662594 -61.11865234 26.765625 C-67.14327811 28.255225 -73.11848617 29.84075487 -79.0625 31.625 C-80.06953979 31.92700317 -80.06953979 31.92700317 -81.09692383 32.23510742 C-81.75329834 32.43209229 -82.40967285 32.62907715 -83.0859375 32.83203125 C-87.1073474 34.03845422 -91.13979105 35.19751421 -95.1875 36.3125 C-96.94126953 36.80169922 -96.94126953 36.80169922 -98.73046875 37.30078125 C-101.9296183 37.98494824 -104.74051602 38.13354487 -108 38 C-108.66 35.03 -109.32 32.06 -110 29 C-103.70384136 26.47408547 -97.40484573 24.76094001 -90.8125 23.1875 C-82.90799371 21.25982275 -75.05978887 19.21913568 -67.25 16.9375 C-60.53123286 14.97693757 -53.79934098 13.15995494 -47 11.5 C-39.93311813 9.77375483 -32.92769214 7.88977622 -25.9375 5.875 C-25.05320312 5.62024902 -24.16890625 5.36549805 -23.2578125 5.10302734 C-19.64046556 4.05803125 -16.02485449 3.0072481 -12.41015625 1.953125 C-11.44980469 1.67984375 -10.48945313 1.4065625 -9.5 1.125 C-8.7265625 0.90070313 -7.953125 0.67640625 -7.15625 0.4453125 C-4.72476942 -0.0568411 -2.47609633 -0.07846784 0 0 Z " fill="#FEF9F7" transform="translate(508,237)"/>
<path d="M0 0 C4.95 0.99 4.95 0.99 10 2 C8.78777967 10.12187622 6.68535869 17.81882973 4.38427734 25.68237305 C2.61532894 31.75853489 0.99645248 37.85137314 -0.5 44 C-2.37337741 51.67662739 -4.48182237 59.26071418 -6.69482422 66.84570312 C-8.96455222 74.70323685 -10.92951162 82.62492178 -12.87719727 90.56738281 C-14.66466179 97.80306783 -16.65040988 104.92358739 -19 112 C-22.3 111.34 -25.6 110.68 -29 110 C-28.15995569 104.12969038 -26.69326243 98.43175645 -25.25 92.6875 C-24.8468457 91.07681641 -24.8468457 91.07681641 -24.43554688 89.43359375 C-22.74172932 82.73840945 -20.90286406 76.1116686 -18.89331055 69.50561523 C-17.08157046 63.46863588 -15.56375215 57.37067566 -14.0625 51.25 C-11.71945497 41.70333782 -9.13009231 32.25485246 -6.38671875 22.81640625 C-4.75118318 17.18039345 -3.24681426 11.51313808 -1.76171875 5.8359375 C-1.23461173 3.8734775 -0.64258004 1.92774011 0 0 Z " fill="#FEFBF7" transform="translate(333,69)"/>
<path d="M0 0 C3.74020498 1.68152073 5.56134348 3.69039473 8 7 C-2.21602731 17.33273177 -12.44643709 27.65102982 -22.69371414 37.952775 C-27.45125422 42.73611738 -32.20399806 47.52405031 -36.94580078 52.32299805 C-41.51855822 56.95083694 -46.10423398 61.56562374 -50.69811249 66.1724987 C-52.45203689 67.93568954 -54.20154138 69.70328808 -55.94660187 71.47525215 C-58.38429833 73.94903812 -60.83698571 76.40693904 -63.29394531 78.86157227 C-64.01827255 79.60387589 -64.74259979 80.3461795 -65.48887634 81.11097717 C-66.49420158 82.10599243 -66.49420158 82.10599243 -67.51983643 83.12110901 C-68.38816542 83.99635145 -68.38816542 83.99635145 -69.27403641 84.88927555 C-71 86 -71 86 -73.07688522 85.80883694 C-75.65291426 84.7253928 -77.14462066 83.05416998 -79 81 C-77.65323083 77.99976052 -76.16088099 75.91279995 -73.83627319 73.59576416 C-73.185634 72.94237564 -72.53499481 72.28898712 -71.86463928 71.61579895 C-71.15182297 70.91017319 -70.43900665 70.20454742 -69.70458984 69.47753906 C-68.57761436 68.3501255 -68.57761436 68.3501255 -67.4278717 67.19993591 C-64.94360487 64.71706229 -62.45232905 62.2413477 -59.9609375 59.765625 C-58.23700151 58.04541916 -56.51350659 56.3247712 -54.79043579 54.60369873 C-50.25415749 50.07505668 -45.71190506 45.55245285 -41.168396 41.03106689 C-36.53313047 36.41625986 -31.90352137 31.79578604 -27.2734375 27.17578125 C-18.18782914 18.11162268 -9.09609212 9.0536372 0 0 Z " fill="#FEFDFD" transform="translate(442,130)"/>
<path d="M0 0 C3.63 0 7.26 0 11 0 C11 24.09 11 48.18 11 73 C7.37 73 3.74 73 0 73 C0 48.91 0 24.82 0 0 Z " fill="#FDF4EC" transform="translate(270,103)"/>
<path d="M0 0 C2.64 1.32 5.28 2.64 8 4 C7.41200706 7.94845901 6.20463504 10.76116418 4.18359375 14.19140625 C3.59167236 15.20549561 2.99975098 16.21958496 2.38989258 17.2644043 C1.74560303 18.35277588 1.10131348 19.44114746 0.4375 20.5625 C-0.57496534 22.29391066 -1.58740691 24.02533561 -2.59864807 25.75746155 C-3.3045281 26.96591904 -4.01127917 28.17386811 -4.71885681 29.3813324 C-8.40735073 35.67833967 -12.02813808 42.01347094 -15.64205933 48.35348511 C-16.66698656 50.15151331 -17.69282375 51.94901894 -18.71899414 53.74633789 C-19.95013959 55.90284079 -21.18103684 58.05948541 -22.41162109 60.21630859 C-24.27295968 63.47837171 -26.1361195 66.7393888 -28 70 C-31.48539917 69.35455571 -34.02819057 67.89865603 -37 66 C-36.41933397 62.19439766 -35.33578266 59.473423 -33.3671875 56.17578125 C-32.81546875 55.2420166 -32.26375 54.30825195 -31.6953125 53.34619141 C-31.09460938 52.34507324 -30.49390625 51.34395508 -29.875 50.3125 C-28.60079087 48.16061297 -27.32738199 46.00825193 -26.0546875 43.85546875 C-25.39049805 42.73575684 -24.72630859 41.61604492 -24.04199219 40.46240234 C-20.01277741 33.6492042 -16.09429349 26.7710626 -12.15185547 19.9074707 C-1.63473833 1.63473833 -1.63473833 1.63473833 0 0 Z " fill="#FEFBF8" transform="translate(373,125)"/>
<path d="M0 0 C3.82524236 1.450954 5.19090966 3.38181932 7 7 C7 7.66 7 8.32 7 9 C6.27748047 9.41137207 5.55496094 9.82274414 4.81054688 10.24658203 C1.37297222 12.20478352 -2.06371639 14.16453425 -5.5 16.125 C-6.12759216 16.48292633 -6.75518433 16.84085266 -7.40179443 17.20962524 C-17.31314654 22.86453654 -27.18636425 28.57959243 -37.00585938 34.39306641 C-42.88881102 37.85331919 -48.85388509 41.03167753 -55 44 C-57.475 40.04 -57.475 40.04 -60 36 C-56.71902718 33.27464902 -53.44143068 30.96780289 -49.73828125 28.85546875 C-48.20119507 27.97411255 -48.20119507 27.97411255 -46.63305664 27.07495117 C-45.53727295 26.45209229 -44.44148926 25.8292334 -43.3125 25.1875 C-41.57995703 24.19534738 -39.84741778 23.20318818 -38.11509705 22.21064758 C-36.30729756 21.17557505 -34.49846725 20.14232299 -32.68945312 19.109375 C-27.21251381 15.98031826 -21.74740772 12.83073702 -16.28329468 9.67935181 C-14.58644218 8.70130007 -12.88856501 7.72502677 -11.19067383 6.7487793 C-10.15966553 6.15492432 -9.12865723 5.56106934 -8.06640625 4.94921875 C-7.15834229 4.42674561 -6.25027832 3.90427246 -5.31469727 3.3659668 C-3.50873799 2.30022034 -1.74478871 1.16319248 0 0 Z " fill="#FEFAF8" transform="translate(444,200)"/>
<path d="M0 0 C22.11 0 44.22 0 67 0 C67 3.3 67 6.6 67 10 C44.89 10 22.78 10 0 10 C0 6.7 0 3.4 0 0 Z " fill="#FFFFFF" transform="translate(404,299)"/>
<path d="M0 0 C0.99 0.495 0.99 0.495 2 1 C1.34 2.32 0.68 3.64 0 5 C0 4.34 0 3.68 0 3 C-25.95292005 24.76263076 -46.93605574 49.78925376 -64 79 C-64.38736328 79.65742188 -64.77472656 80.31484375 -65.17382812 80.9921875 C-80.24786544 106.86512079 -89.74964107 136.63802207 -95 166 C-95.15839355 166.86125488 -95.31678711 167.72250977 -95.47998047 168.60986328 C-99.31723016 190.44790324 -98.73957948 212.90022544 -99 235 C-99.33 235 -99.66 235 -100 235 C-100.63630299 183.65198004 -100.63630299 183.65198004 -97 165 C-96.80132324 163.94474121 -96.60264648 162.88948242 -96.39794922 161.80224609 C-87.76621242 116.98833767 -68.82353442 75.42341864 -40 40 C-39.56816406 39.4652002 -39.13632812 38.93040039 -38.69140625 38.37939453 C-27.34386714 24.429322 -14.6496842 10.52716001 0 0 Z " fill="#91DCF3" transform="translate(100,61)"/>
<path d="M0 0 C0.66 0.33 1.32 0.66 2 1 C1.34 2.32 0.68 3.64 0 5 C0 4.34 0 3.68 0 3 C-6.68956166 8.62694684 -12.85070826 14.73234394 -19 20.9375 C-19.97502386 21.9175531 -20.9502828 22.8973724 -21.92578125 23.87695312 C-24.28616618 26.24902313 -26.64416905 28.6234086 -29 31 C-29.33 30.01 -29.66 29.02 -30 28 C-26.88367189 24.82470207 -23.75536953 21.66145121 -20.625 18.5 C-19.75488281 17.613125 -18.88476562 16.72625 -17.98828125 15.8125 C-12.30429186 10.08640699 -6.4202026 4.88730362 0 0 Z " fill="#6EDFFF" transform="translate(100,61)"/>
<path d="M0 0 C2.98205122 2.55604391 4.58490064 5.35053322 6 9 C5.07421875 11.19140625 5.07421875 11.19140625 4 13 C3.32942113 11.2097939 2.6636531 9.41778511 2 7.625 C1.62875 6.62726563 1.2575 5.62953125 0.875 4.6015625 C0 2 0 2 0 0 Z " fill="#F9785D" transform="translate(113,292)"/>
<path d="M0 0 C0.66 0 1.32 0 2 0 C3.37073786 1.63604196 4.70055256 3.30678061 6 5 C6.98230498 6.0173873 7.97469597 7.02596117 9 8 C6 8 6 8 4.39453125 6.50390625 C3.61142578 5.54291016 3.61142578 5.54291016 2.8125 4.5625 C2.28269531 3.92441406 1.75289062 3.28632813 1.20703125 2.62890625 C0 1 0 1 0 0 Z " fill="#CBE3D3" transform="translate(61,445)"/>
</svg>
